<svg width="511" height="512" viewBox="0 0 511 512" fill="none" xmlns="http://www.w3.org/2000/svg">
<g clip-path="url(#clip0)">
<path d="M290 511H208.008C194.312 511 183.172 499.859 183.172 486.164V301.227H135.336C121.641 301.227 110.5 290.082 110.5 276.391V197.145C110.5 183.449 121.641 172.309 135.336 172.309H183.172V132.625C183.172 93.2773 195.527 59.8008 218.898 35.8203C242.375 11.7305 275.184 -1 313.777 -1L376.309 -0.898438C389.98 -0.875 401.102 10.2656 401.102 23.9375V97.5156C401.102 111.211 389.965 122.352 376.273 122.352L334.172 122.367C321.332 122.367 318.062 124.941 317.363 125.73C316.211 127.039 314.84 130.738 314.84 140.953V172.305H373.109C377.496 172.305 381.746 173.387 385.398 175.426C393.277 179.828 398.176 188.152 398.176 197.148L398.145 276.395C398.145 290.082 387.004 301.223 373.309 301.223H314.84V486.164C314.84 499.859 303.695 511 290 511ZM213.188 480.984H284.82V287.789C284.82 278.645 292.262 271.207 301.402 271.207H368.129L368.156 202.324H301.398C292.258 202.324 284.82 194.887 284.82 185.742V140.953C284.82 129.227 286.012 115.891 294.863 105.867C305.559 93.75 322.414 92.3516 334.164 92.3516L371.086 92.3359V29.1094L313.754 29.0156C251.73 29.0156 213.188 68.7188 213.188 132.625V185.742C213.188 194.883 205.75 202.324 196.609 202.324H140.516V271.207H196.609C205.75 271.207 213.188 278.645 213.188 287.789V480.984ZM376.25 29.1172H376.254H376.25Z" fill="white"/>
</g>
<defs>
<clipPath id="clip0">
<rect width="511" height="512" fill="white"/>
</clipPath>
</defs>
</svg>
